<?xml version="1.0" encoding="utf-8"?>
<!-- Generator: Adobe Illustrator 23.1.1, SVG Export Plug-In . SVG Version: 6.00 Build 0)  -->
<svg version="1.1" id="Layer_1" xmlns="http://www.w3.org/2000/svg" xmlns:xlink="http://www.w3.org/1999/xlink" x="0px" y="0px"
	 viewBox="0 0 735 852" style="enable-background:new 0 0 735 852;" xml:space="preserve">
<style type="text/css">
	.st0{fill:none;stroke:#80829B;stroke-width:7;stroke-miterlimit:10;}
	.st1{fill:#4B9CD3;}
	.st2{fill:#4B9CD3;stroke:#FFFFFF;stroke-width:10;stroke-linecap:round;stroke-miterlimit:10;}
	.st3{fill:#FDDD3F;stroke:#767676;stroke-width:14;stroke-miterlimit:10;}
	.st4{fill:none;stroke:#767676;stroke-width:14;stroke-linecap:round;stroke-miterlimit:10;}
	.st5{fill:#767676;}
	.st6{font-family:'CourierPrime-Bold';}
	.st7{font-size:100px;}
	.st8{fill:none;stroke:#767676;stroke-miterlimit:10;}
	.st9{fill:#FFFFFF;stroke:#767676;stroke-miterlimit:10;}
	.st10{font-size:145px;}
</style>
<g>
	<polyline class="st0" points="367.5,57.5 367.5,426 48.4,610.3 	"/>
	<line class="st0" x1="367.5" y1="426" x2="686.6" y2="610.3"/>
</g>
<polygon class="st1" points="-0.7,213.4 367.5,0.8 735.7,213.4 735.7,638.6 367.5,851.2 -0.7,638.6 "/>
<polygon class="st2" points="48.4,241.7 367.5,57.5 686.6,241.7 686.6,610.3 367.5,794.5 48.4,610.3 "/>
<title>devtools</title>
<path class="st3" d="M367.5,145.1c-192.8,0-217,194.2-140.1,308.9c72.1,107.5,14.5,170.7,140.1,170.7s68.1-63.2,140.1-170.7
	C584.5,339.4,560.3,145.1,367.5,145.1z"/>
<path class="st4" d="M289.9,629.9c46.9,19.6,107.4,19.8,155.2,0"/>
<path class="st4" d="M289.9,650.6c46.9,19.6,107.4,19.8,155.2,0"/>
<path class="st4" d="M289.9,671.4c46.9,19.6,107.4,19.8,155.2,0"/>
<path class="st4" d="M289.9,692.1c46.9,19.6,107.4,19.8,155.2,0"/>
<text transform="matrix(1 0 0 1 220.8464 395.1972)" class="st5 st6 st7">{•••}</text>
<g>
	<path class="st8" d="M254.9,419.4c0,0,95.1-22,95.1,204.5"/>
	<path class="st8" d="M480.1,419.4c0,0-95.1-22-95.1,204.5"/>
</g>
<text transform="matrix(1 0 0 1 106.6698 575.968)" class="st9 st6 st10">htltcR</text>
</svg>
